<mxfile host="app.diagrams.net" modified="2022-11-17T17:31:50.460Z" agent="5.0 (Windows NT 10.0; Win64; x64) AppleWebKit/537.36 (KHTML, like Gecko) Chrome/107.0.0.0 Safari/537.36" etag="Mbp8ziD-KlXuAzNP1mcM" version="20.5.1" type="github">
  <diagram name="page 1" id="N1Uh8Uqzvzl1h49wrjXv">
    <mxGraphModel dx="1341" dy="802" grid="1" gridSize="10" guides="1" tooltips="1" connect="1" arrows="1" fold="1" page="1" pageScale="1" pageWidth="1100" pageHeight="850" math="0" shadow="0">
      <root>
        <mxCell id="ATaFyU4rxO5xNbV8lIyp-0" />
        <mxCell id="ATaFyU4rxO5xNbV8lIyp-1" parent="ATaFyU4rxO5xNbV8lIyp-0" />
        <mxCell id="ATaFyU4rxO5xNbV8lIyp-4" style="edgeStyle=orthogonalEdgeStyle;rounded=1;orthogonalLoop=1;jettySize=auto;html=1;exitX=0;exitY=0.5;exitDx=0;exitDy=0;entryX=0.042;entryY=0;entryDx=0;entryDy=0;entryPerimeter=0;" parent="ATaFyU4rxO5xNbV8lIyp-1" source="ATaFyU4rxO5xNbV8lIyp-5" target="ATaFyU4rxO5xNbV8lIyp-6" edge="1">
          <mxGeometry relative="1" as="geometry">
            <Array as="points">
              <mxPoint x="88" y="120" />
            </Array>
          </mxGeometry>
        </mxCell>
        <mxCell id="ATaFyU4rxO5xNbV8lIyp-5" value="Read Batch Messages" style="rounded=1;whiteSpace=wrap;html=1;" parent="ATaFyU4rxO5xNbV8lIyp-1" vertex="1">
          <mxGeometry x="119" y="100" width="120" height="40" as="geometry" />
        </mxCell>
        <mxCell id="ATaFyU4rxO5xNbV8lIyp-6" value="" style="points=[[0.25,0,0],[0.5,0,0],[0.75,0,0],[1,0.25,0],[1,0.5,0],[1,0.75,0],[0.75,1,0],[0.5,1,0],[0.25,1,0],[0,0.75,0],[0,0.5,0],[0,0.25,0]];shape=mxgraph.bpmn.task;whiteSpace=wrap;rectStyle=rounded;size=10;taskMarker=abstract;isLoopStandard=1;" parent="ATaFyU4rxO5xNbV8lIyp-1" vertex="1">
          <mxGeometry x="44" y="150" width="1046" height="270" as="geometry" />
        </mxCell>
        <mxCell id="ATaFyU4rxO5xNbV8lIyp-7" value="" style="ellipse;html=1;shape=startState;fillColor=#000000;strokeColor=#ff0000;" parent="ATaFyU4rxO5xNbV8lIyp-1" vertex="1">
          <mxGeometry x="59" y="170" width="30" height="30" as="geometry" />
        </mxCell>
        <mxCell id="ATaFyU4rxO5xNbV8lIyp-8" value="" style="edgeStyle=orthogonalEdgeStyle;html=1;verticalAlign=bottom;endArrow=open;endSize=8;strokeColor=#ff0000;rounded=0;entryX=0;entryY=0.5;entryDx=0;entryDy=0;" parent="ATaFyU4rxO5xNbV8lIyp-1" source="ATaFyU4rxO5xNbV8lIyp-7" target="ATaFyU4rxO5xNbV8lIyp-10" edge="1">
          <mxGeometry relative="1" as="geometry">
            <mxPoint x="104" y="260" as="targetPoint" />
          </mxGeometry>
        </mxCell>
        <mxCell id="ATaFyU4rxO5xNbV8lIyp-9" style="edgeStyle=orthogonalEdgeStyle;rounded=1;orthogonalLoop=1;jettySize=auto;html=1;exitX=0.5;exitY=1;exitDx=0;exitDy=0;entryX=0.5;entryY=0;entryDx=0;entryDy=0;" parent="ATaFyU4rxO5xNbV8lIyp-1" source="ATaFyU4rxO5xNbV8lIyp-10" target="5-nYULu3ibPL7dZ2KXy9-0" edge="1">
          <mxGeometry relative="1" as="geometry" />
        </mxCell>
        <mxCell id="ATaFyU4rxO5xNbV8lIyp-10" value="Parse Trigger from message" style="rounded=1;whiteSpace=wrap;html=1;" parent="ATaFyU4rxO5xNbV8lIyp-1" vertex="1">
          <mxGeometry x="110" y="165" width="120" height="40" as="geometry" />
        </mxCell>
        <mxCell id="ATaFyU4rxO5xNbV8lIyp-12" style="edgeStyle=orthogonalEdgeStyle;rounded=0;orthogonalLoop=1;jettySize=auto;html=1;exitX=1;exitY=0.5;exitDx=0;exitDy=0;entryX=0;entryY=0.5;entryDx=0;entryDy=0;startArrow=none;startFill=0;" parent="ATaFyU4rxO5xNbV8lIyp-1" source="ATaFyU4rxO5xNbV8lIyp-13" target="ATaFyU4rxO5xNbV8lIyp-21" edge="1">
          <mxGeometry relative="1" as="geometry" />
        </mxCell>
        <mxCell id="5-nYULu3ibPL7dZ2KXy9-6" style="edgeStyle=orthogonalEdgeStyle;rounded=1;orthogonalLoop=1;jettySize=auto;html=1;exitX=0.5;exitY=1;exitDx=0;exitDy=0;entryX=0;entryY=0.5;entryDx=0;entryDy=0;entryPerimeter=0;dashed=1;" parent="ATaFyU4rxO5xNbV8lIyp-1" source="ATaFyU4rxO5xNbV8lIyp-13" target="ATaFyU4rxO5xNbV8lIyp-32" edge="1">
          <mxGeometry relative="1" as="geometry" />
        </mxCell>
        <mxCell id="ATaFyU4rxO5xNbV8lIyp-13" value="Create/Update&lt;br&gt;Contact" style="rounded=1;whiteSpace=wrap;html=1;" parent="ATaFyU4rxO5xNbV8lIyp-1" vertex="1">
          <mxGeometry x="710" y="240" width="120" height="40" as="geometry" />
        </mxCell>
        <mxCell id="ATaFyU4rxO5xNbV8lIyp-20" style="edgeStyle=orthogonalEdgeStyle;rounded=0;orthogonalLoop=1;jettySize=auto;html=1;exitX=0.5;exitY=1;exitDx=0;exitDy=0;entryX=0.5;entryY=0;entryDx=0;entryDy=0;" parent="ATaFyU4rxO5xNbV8lIyp-1" source="ATaFyU4rxO5xNbV8lIyp-21" target="ATaFyU4rxO5xNbV8lIyp-25" edge="1">
          <mxGeometry relative="1" as="geometry" />
        </mxCell>
        <mxCell id="ATaFyU4rxO5xNbV8lIyp-21" value="Personalize&lt;br&gt;Message" style="rounded=1;whiteSpace=wrap;html=1;" parent="ATaFyU4rxO5xNbV8lIyp-1" vertex="1">
          <mxGeometry x="877" y="240" width="120" height="40" as="geometry" />
        </mxCell>
        <mxCell id="ATaFyU4rxO5xNbV8lIyp-23" style="edgeStyle=orthogonalEdgeStyle;rounded=0;orthogonalLoop=1;jettySize=auto;html=1;exitX=0.5;exitY=1;exitDx=0;exitDy=0;entryX=0.5;entryY=0;entryDx=0;entryDy=0;entryPerimeter=0;dashed=1;" parent="ATaFyU4rxO5xNbV8lIyp-1" source="ATaFyU4rxO5xNbV8lIyp-25" target="ATaFyU4rxO5xNbV8lIyp-32" edge="1">
          <mxGeometry relative="1" as="geometry">
            <mxPoint x="937" y="310.5230774964773" as="targetPoint" />
          </mxGeometry>
        </mxCell>
        <mxCell id="ATaFyU4rxO5xNbV8lIyp-24" style="edgeStyle=orthogonalEdgeStyle;rounded=0;orthogonalLoop=1;jettySize=auto;html=1;exitX=1;exitY=0.5;exitDx=0;exitDy=0;entryX=0;entryY=0.5;entryDx=0;entryDy=0;" parent="ATaFyU4rxO5xNbV8lIyp-1" source="ATaFyU4rxO5xNbV8lIyp-25" target="ATaFyU4rxO5xNbV8lIyp-27" edge="1">
          <mxGeometry relative="1" as="geometry" />
        </mxCell>
        <mxCell id="ATaFyU4rxO5xNbV8lIyp-25" value="Save message&lt;br&gt;&lt;b&gt;status:&lt;/b&gt; Created" style="rounded=1;whiteSpace=wrap;html=1;" parent="ATaFyU4rxO5xNbV8lIyp-1" vertex="1">
          <mxGeometry x="877" y="340" width="120" height="45" as="geometry" />
        </mxCell>
        <mxCell id="ATaFyU4rxO5xNbV8lIyp-26" value="" style="edgeStyle=orthogonalEdgeStyle;rounded=1;orthogonalLoop=1;jettySize=auto;html=1;startArrow=classic;startFill=1;dashed=1;entryX=0.5;entryY=0;entryDx=0;entryDy=0;entryPerimeter=0;exitX=0.5;exitY=1;exitDx=0;exitDy=0;exitPerimeter=0;" parent="ATaFyU4rxO5xNbV8lIyp-1" source="ATaFyU4rxO5xNbV8lIyp-32" target="ATaFyU4rxO5xNbV8lIyp-31" edge="1">
          <mxGeometry relative="1" as="geometry">
            <mxPoint x="1037" y="510" as="targetPoint" />
          </mxGeometry>
        </mxCell>
        <mxCell id="ATaFyU4rxO5xNbV8lIyp-27" value="" style="ellipse;html=1;shape=endState;fillColor=#000000;strokeColor=#ff0000;" parent="ATaFyU4rxO5xNbV8lIyp-1" vertex="1">
          <mxGeometry x="1039" y="347.5" width="30" height="30" as="geometry" />
        </mxCell>
        <mxCell id="ATaFyU4rxO5xNbV8lIyp-28" value="&lt;span style=&quot;font-size: 11px; font-weight: 700;&quot;&gt;Distributed Cache&lt;/span&gt;" style="sketch=0;aspect=fixed;html=1;points=[];align=left;image;fontSize=12;image=img/lib/mscae/Cache_Redis_Product.svg;spacingLeft=60;spacingRight=150;spacingBottom=80;spacingTop=0;labelBackgroundColor=none;verticalAlign=middle;" parent="ATaFyU4rxO5xNbV8lIyp-1" vertex="1">
          <mxGeometry x="493" y="526" width="50" height="42" as="geometry" />
        </mxCell>
        <UserObject label="Message Packer Job&#xa;" id="ATaFyU4rxO5xNbV8lIyp-31">
          <mxCell style="sketch=0;points=[[0,0,0],[0.25,0,0],[0.5,0,0],[0.75,0,0],[1,0,0],[0,1,0],[0.25,1,0],[0.5,1,0],[0.75,1,0],[1,1,0],[0,0.25,0],[0,0.5,0],[0,0.75,0],[1,0.25,0],[1,0.5,0],[1,0.75,0]];outlineConnect=0;fontColor=#1726FF;gradientColor=#F78E04;gradientDirection=north;fillColor=#D05C17;strokeColor=#ffffff;dashed=0;verticalLabelPosition=bottom;verticalAlign=top;align=center;fontSize=11;fontStyle=5;aspect=fixed;shape=mxgraph.aws4.resourceIcon;resIcon=mxgraph.aws4.batch;labelBackgroundColor=none;fontFamily=Helvetica;" parent="ATaFyU4rxO5xNbV8lIyp-1" vertex="1">
            <mxGeometry x="913" y="520" width="48" height="48" as="geometry" />
          </mxCell>
        </UserObject>
        <mxCell id="ATaFyU4rxO5xNbV8lIyp-32" value="Database" style="sketch=0;points=[[0,0,0],[0.25,0,0],[0.5,0,0],[0.75,0,0],[1,0,0],[0,1,0],[0.25,1,0],[0.5,1,0],[0.75,1,0],[1,1,0],[0,0.25,0],[0,0.5,0],[0,0.75,0],[1,0.25,0],[1,0.5,0],[1,0.75,0]];outlineConnect=0;fontColor=#232F3E;gradientColor=#4D72F3;gradientDirection=north;fillColor=#3334B9;strokeColor=#ffffff;dashed=0;verticalLabelPosition=bottom;verticalAlign=top;align=center;fontSize=11;fontStyle=1;aspect=fixed;shape=mxgraph.aws4.resourceIcon;resIcon=mxgraph.aws4.rds;labelBackgroundColor=none;labelBorderColor=none;fontFamily=Helvetica;" parent="ATaFyU4rxO5xNbV8lIyp-1" vertex="1">
          <mxGeometry x="913" y="430" width="48" height="48" as="geometry" />
        </mxCell>
        <mxCell id="5-nYULu3ibPL7dZ2KXy9-2" style="edgeStyle=orthogonalEdgeStyle;rounded=0;orthogonalLoop=1;jettySize=auto;html=1;exitX=0.5;exitY=1;exitDx=0;exitDy=0;entryX=0.5;entryY=0;entryDx=0;entryDy=0;" parent="ATaFyU4rxO5xNbV8lIyp-1" source="5-nYULu3ibPL7dZ2KXy9-0" target="5-nYULu3ibPL7dZ2KXy9-1" edge="1">
          <mxGeometry relative="1" as="geometry" />
        </mxCell>
        <mxCell id="5-nYULu3ibPL7dZ2KXy9-17" style="edgeStyle=orthogonalEdgeStyle;rounded=1;orthogonalLoop=1;jettySize=auto;html=1;exitX=0;exitY=0.5;exitDx=0;exitDy=0;dashed=1;entryX=0;entryY=0.5;entryDx=0;entryDy=0;entryPerimeter=0;" parent="ATaFyU4rxO5xNbV8lIyp-1" source="5-nYULu3ibPL7dZ2KXy9-0" target="ATaFyU4rxO5xNbV8lIyp-32" edge="1">
          <mxGeometry relative="1" as="geometry">
            <mxPoint x="810" y="490" as="targetPoint" />
            <Array as="points">
              <mxPoint x="60" y="260" />
              <mxPoint x="60" y="580" />
              <mxPoint x="770" y="580" />
              <mxPoint x="770" y="454" />
            </Array>
          </mxGeometry>
        </mxCell>
        <mxCell id="5-nYULu3ibPL7dZ2KXy9-19" style="edgeStyle=orthogonalEdgeStyle;rounded=1;orthogonalLoop=1;jettySize=auto;html=1;exitX=1;exitY=0.5;exitDx=0;exitDy=0;entryX=0;entryY=0.5;entryDx=0;entryDy=0;" parent="ATaFyU4rxO5xNbV8lIyp-1" source="5-nYULu3ibPL7dZ2KXy9-0" target="5-nYULu3ibPL7dZ2KXy9-18" edge="1">
          <mxGeometry relative="1" as="geometry" />
        </mxCell>
        <mxCell id="5-nYULu3ibPL7dZ2KXy9-0" value="Get Trigger from DB&lt;br&gt;by {UUID} and {app}" style="rounded=1;whiteSpace=wrap;html=1;" parent="ATaFyU4rxO5xNbV8lIyp-1" vertex="1">
          <mxGeometry x="110" y="230" width="120" height="60" as="geometry" />
        </mxCell>
        <mxCell id="5-nYULu3ibPL7dZ2KXy9-14" style="edgeStyle=orthogonalEdgeStyle;rounded=1;orthogonalLoop=1;jettySize=auto;html=1;exitX=0.5;exitY=1;exitDx=0;exitDy=0;entryX=-0.06;entryY=0.476;entryDx=0;entryDy=0;entryPerimeter=0;dashed=1;" parent="ATaFyU4rxO5xNbV8lIyp-1" source="5-nYULu3ibPL7dZ2KXy9-1" target="ATaFyU4rxO5xNbV8lIyp-28" edge="1">
          <mxGeometry relative="1" as="geometry">
            <Array as="points">
              <mxPoint x="170" y="546" />
            </Array>
          </mxGeometry>
        </mxCell>
        <mxCell id="5-nYULu3ibPL7dZ2KXy9-1" value="Put Trigger to Cache&lt;br&gt;key &#39;trigger_&#39;+{uuid}" style="rounded=1;whiteSpace=wrap;html=1;" parent="ATaFyU4rxO5xNbV8lIyp-1" vertex="1">
          <mxGeometry x="110" y="312.5" width="120" height="60" as="geometry" />
        </mxCell>
        <mxCell id="5-nYULu3ibPL7dZ2KXy9-5" style="edgeStyle=orthogonalEdgeStyle;rounded=0;orthogonalLoop=1;jettySize=auto;html=1;exitX=0.75;exitY=1;exitDx=0;exitDy=0;entryX=0.25;entryY=0;entryDx=0;entryDy=0;" parent="ATaFyU4rxO5xNbV8lIyp-1" source="5-nYULu3ibPL7dZ2KXy9-3" target="5-nYULu3ibPL7dZ2KXy9-4" edge="1">
          <mxGeometry relative="1" as="geometry" />
        </mxCell>
        <mxCell id="5-nYULu3ibPL7dZ2KXy9-16" style="edgeStyle=orthogonalEdgeStyle;rounded=1;orthogonalLoop=1;jettySize=auto;html=1;exitX=0.25;exitY=1;exitDx=0;exitDy=0;entryX=0.485;entryY=0.015;entryDx=0;entryDy=0;entryPerimeter=0;dashed=1;" parent="ATaFyU4rxO5xNbV8lIyp-1" source="5-nYULu3ibPL7dZ2KXy9-3" target="5-nYULu3ibPL7dZ2KXy9-10" edge="1">
          <mxGeometry relative="1" as="geometry" />
        </mxCell>
        <mxCell id="5-nYULu3ibPL7dZ2KXy9-22" style="edgeStyle=orthogonalEdgeStyle;rounded=1;orthogonalLoop=1;jettySize=auto;html=1;exitX=1;exitY=0.5;exitDx=0;exitDy=0;entryX=0;entryY=0.5;entryDx=0;entryDy=0;" parent="ATaFyU4rxO5xNbV8lIyp-1" source="5-nYULu3ibPL7dZ2KXy9-3" target="5-nYULu3ibPL7dZ2KXy9-21" edge="1">
          <mxGeometry relative="1" as="geometry" />
        </mxCell>
        <mxCell id="5-nYULu3ibPL7dZ2KXy9-3" value="Get Permissions" style="rounded=1;whiteSpace=wrap;html=1;" parent="ATaFyU4rxO5xNbV8lIyp-1" vertex="1">
          <mxGeometry x="400" y="242.5" width="120" height="35" as="geometry" />
        </mxCell>
        <mxCell id="5-nYULu3ibPL7dZ2KXy9-15" style="edgeStyle=orthogonalEdgeStyle;rounded=1;orthogonalLoop=1;jettySize=auto;html=1;exitX=0.5;exitY=1;exitDx=0;exitDy=0;entryX=0.54;entryY=-0.048;entryDx=0;entryDy=0;entryPerimeter=0;dashed=1;" parent="ATaFyU4rxO5xNbV8lIyp-1" source="5-nYULu3ibPL7dZ2KXy9-4" target="ATaFyU4rxO5xNbV8lIyp-28" edge="1">
          <mxGeometry relative="1" as="geometry">
            <mxPoint x="380" y="370" as="targetPoint" />
          </mxGeometry>
        </mxCell>
        <mxCell id="5-nYULu3ibPL7dZ2KXy9-4" value="Put to Cache&lt;br&gt;key &#39;permissions_&#39;+{organizationId}" style="rounded=1;whiteSpace=wrap;html=1;" parent="ATaFyU4rxO5xNbV8lIyp-1" vertex="1">
          <mxGeometry x="460" y="312.5" width="120" height="60" as="geometry" />
        </mxCell>
        <mxCell id="5-nYULu3ibPL7dZ2KXy9-8" style="edgeStyle=orthogonalEdgeStyle;rounded=1;orthogonalLoop=1;jettySize=auto;html=1;exitX=0;exitY=0.5;exitDx=0;exitDy=0;entryX=1;entryY=0.5;entryDx=0;entryDy=0;" parent="ATaFyU4rxO5xNbV8lIyp-1" source="5-nYULu3ibPL7dZ2KXy9-7" target="ATaFyU4rxO5xNbV8lIyp-5" edge="1">
          <mxGeometry relative="1" as="geometry" />
        </mxCell>
        <mxCell id="5-nYULu3ibPL7dZ2KXy9-7" value="" style="ellipse;html=1;shape=startState;fillColor=#000000;strokeColor=#ff0000;" parent="ATaFyU4rxO5xNbV8lIyp-1" vertex="1">
          <mxGeometry x="283" y="105" width="30" height="30" as="geometry" />
        </mxCell>
        <mxCell id="5-nYULu3ibPL7dZ2KXy9-10" value="Billing Service" style="aspect=fixed;html=1;points=[];align=center;image;fontSize=12;image=img/lib/azure2/general/Cost_Management_and_Billing.svg;" parent="ATaFyU4rxO5xNbV8lIyp-1" vertex="1">
          <mxGeometry x="397" y="440" width="68" height="68" as="geometry" />
        </mxCell>
        <mxCell id="5-nYULu3ibPL7dZ2KXy9-20" value="YES" style="edgeStyle=orthogonalEdgeStyle;rounded=1;orthogonalLoop=1;jettySize=auto;html=1;exitX=1;exitY=0.5;exitDx=0;exitDy=0;entryX=0;entryY=0.5;entryDx=0;entryDy=0;" parent="ATaFyU4rxO5xNbV8lIyp-1" source="5-nYULu3ibPL7dZ2KXy9-18" target="5-nYULu3ibPL7dZ2KXy9-3" edge="1">
          <mxGeometry relative="1" as="geometry" />
        </mxCell>
        <mxCell id="5-nYULu3ibPL7dZ2KXy9-25" value="NO" style="edgeStyle=orthogonalEdgeStyle;rounded=1;orthogonalLoop=1;jettySize=auto;html=1;exitX=0.5;exitY=0;exitDx=0;exitDy=0;entryX=0;entryY=0.5;entryDx=0;entryDy=0;" parent="ATaFyU4rxO5xNbV8lIyp-1" source="5-nYULu3ibPL7dZ2KXy9-18" target="5-nYULu3ibPL7dZ2KXy9-24" edge="1">
          <mxGeometry x="-0.9745" y="-15" relative="1" as="geometry">
            <mxPoint as="offset" />
          </mxGeometry>
        </mxCell>
        <mxCell id="5-nYULu3ibPL7dZ2KXy9-18" value="Active&amp;nbsp;&lt;br&gt;&amp;amp;&amp;amp;&lt;br&gt;same app" style="rhombus;whiteSpace=wrap;html=1;" parent="ATaFyU4rxO5xNbV8lIyp-1" vertex="1">
          <mxGeometry x="260" y="230" width="90" height="60" as="geometry" />
        </mxCell>
        <mxCell id="5-nYULu3ibPL7dZ2KXy9-23" value="YES" style="edgeStyle=orthogonalEdgeStyle;rounded=1;orthogonalLoop=1;jettySize=auto;html=1;exitX=1;exitY=0.5;exitDx=0;exitDy=0;entryX=0;entryY=0.5;entryDx=0;entryDy=0;" parent="ATaFyU4rxO5xNbV8lIyp-1" source="5-nYULu3ibPL7dZ2KXy9-21" target="ATaFyU4rxO5xNbV8lIyp-13" edge="1">
          <mxGeometry relative="1" as="geometry" />
        </mxCell>
        <mxCell id="5-nYULu3ibPL7dZ2KXy9-26" value="NO" style="edgeStyle=orthogonalEdgeStyle;rounded=1;orthogonalLoop=1;jettySize=auto;html=1;exitX=0.5;exitY=0;exitDx=0;exitDy=0;" parent="ATaFyU4rxO5xNbV8lIyp-1" source="5-nYULu3ibPL7dZ2KXy9-21" edge="1">
          <mxGeometry x="-0.9267" y="-10" relative="1" as="geometry">
            <mxPoint x="1040" y="180" as="targetPoint" />
            <Array as="points">
              <mxPoint x="610" y="180" />
            </Array>
            <mxPoint y="1" as="offset" />
          </mxGeometry>
        </mxCell>
        <mxCell id="5-nYULu3ibPL7dZ2KXy9-21" value="webhooks&lt;br&gt;allowed?" style="rhombus;whiteSpace=wrap;html=1;" parent="ATaFyU4rxO5xNbV8lIyp-1" vertex="1">
          <mxGeometry x="560" y="227.5" width="100" height="65" as="geometry" />
        </mxCell>
        <mxCell id="5-nYULu3ibPL7dZ2KXy9-24" value="" style="ellipse;html=1;shape=endState;fillColor=#000000;strokeColor=#ff0000;" parent="ATaFyU4rxO5xNbV8lIyp-1" vertex="1">
          <mxGeometry x="1040" y="165" width="30" height="30" as="geometry" />
        </mxCell>
        <mxCell id="5-nYULu3ibPL7dZ2KXy9-27" value="&lt;h1&gt;Updating cache&lt;/h1&gt;&lt;p&gt;&lt;/p&gt;&lt;ul&gt;&lt;li&gt;when trigger updated in config service - place into cache if exists&lt;/li&gt;&lt;li&gt;billing_info, permissions - the same&lt;/li&gt;&lt;/ul&gt;&lt;p&gt;&lt;/p&gt;" style="text;html=1;strokeColor=none;fillColor=none;spacing=5;spacingTop=-20;whiteSpace=wrap;overflow=hidden;rounded=0;" parent="ATaFyU4rxO5xNbV8lIyp-1" vertex="1">
          <mxGeometry x="59" y="620" width="681" height="90" as="geometry" />
        </mxCell>
      </root>
    </mxGraphModel>
  </diagram>
</mxfile>
